HIERARCHY
ROOT Hips
{
  OFFSET -93.6914 97.1326 109.304
  CHANNELS 6 Xposition Yposition Zposition Zrotation Xrotation Yrotation
  JOINT ToSpine
  {
    OFFSET -2.69724 7.43032 -0.144315
    CHANNELS 3 Zrotation Xrotation Yrotation
    JOINT Spine
    {
      OFFSET -0.0310711 10.7595 1.96963
      CHANNELS 3 Zrotation Xrotation Yrotation
      JOINT Spine1
      {
        OFFSET 19.9056 3.91189 0.764692
        CHANNELS 3 Zrotation Xrotation Yrotation
        JOINT Neck
        {
          OFFSET 25.9749 7.03908 -0.130764
          CHANNELS 3 Zrotation Xrotation Yrotation
          JOINT Head
          {
            OFFSET 9.52751 0.295786 -0.907742
            CHANNELS 3 Zrotation Xrotation Yrotation
            End Site
            {
              OFFSET 16.4037 0.713936 2.7358
            }
          }
        }
        JOINT LeftShoulder
        {
          OFFSET 17.7449 4.33886 11.7777
          CHANNELS 3 Zrotation Xrotation Yrotation
          JOINT LeftArm
          {
            OFFSET 0.911315 1.27913 9.80584
            CHANNELS 3 Zrotation Xrotation Yrotation
            JOINT LeftForeArm
            {
              OFFSET 28.6126 1.18197 -3.53199
              CHANNELS 3 Zrotation Xrotation Yrotation
              JOINT LeftHand
              {
                OFFSET 27.5088 0.0218783 0.327423
                CHANNELS 3 Zrotation Xrotation Yrotation
                End Site
                {
                  OFFSET 18.6038 -0.000155887 0.382096
                }
              }
            }
          }
        }
        JOINT RightShoulder
        {
          OFFSET 17.1009 2.89543 -12.2328
          CHANNELS 3 Zrotation Xrotation Yrotation
          JOINT RightArm
          {
            OFFSET 1.4228 0.178766 -10.211
            CHANNELS 3 Zrotation Xrotation Yrotation
            JOINT RightForeArm
            {
              OFFSET 28.733 1.87905 2.64907
              CHANNELS 3 Zrotation Xrotation Yrotation
              JOINT RightHand
              {
                OFFSET 27.4588 0.290562 -0.101845
                CHANNELS 3 Zrotation Xrotation Yrotation
                End Site
                {
                  OFFSET 17.8396 -0.255518 -0.000602873
                }
              }
            }
          }
        }
      }
    }
  }
  JOINT LeftUpLeg
  {
    OFFSET -5.61296 -2.22332 -10.2353
    CHANNELS 3 Zrotation Xrotation Yrotation
    JOINT LeftLeg
    {
      OFFSET 2.56703 -44.7417 -7.93097
      CHANNELS 3 Zrotation Xrotation Yrotation
      JOINT LeftFoot
      {
        OFFSET 3.16933 -46.5642 -3.96578
        CHANNELS 3 Zrotation Xrotation Yrotation
        JOINT LeftToeBase
        {
          OFFSET 0.346054 -6.02161 12.8035
          CHANNELS 3 Zrotation Xrotation Yrotation
          End Site
          {
            OFFSET 0.134235 -1.35082 5.13018
          }
        }
      }
    }
  }
  JOINT RightUpLeg
  {
    OFFSET -5.7928 -1.72406 10.6446
    CHANNELS 3 Zrotation Xrotation Yrotation
    JOINT RightLeg
    {
      OFFSET -2.57161 -44.7178 -7.85259
      CHANNELS 3 Zrotation Xrotation Yrotation
      JOINT RightFoot
      {
        OFFSET -3.10148 -46.5936 -4.03391
        CHANNELS 3 Zrotation Xrotation Yrotation
        JOINT RightToeBase
        {
          OFFSET -0.0828122 -6.13587 12.8035
          CHANNELS 3 Zrotation Xrotation Yrotation
          End Site
          {
            OFFSET -0.131328 -1.35082 5.13018
          }
        }
      }
    }
  }
}
MOTION
Frames:	13
Frame Time:	0.0333333
-201.848 103.236 208.812 70.1976 43.5883 15.9359 -70.1915 0 88.8779 70.0268 71.0609 18.9676 6.17754 21.0694 2.67406 -140.622 17.8406 167.46 -149.293 55.0175 162.031 2.58146 0.118018 -26.5162 -102.938 61.851 -94.8754 -11.9417 51.1241 11.992 11.2083 -0.613983 -4.443 0.407825 -1.62538 28.0174 -89.1616 -55.9561 84.5295 3.50364 -16.8548 16.3018 11.388 -0.36028 -4.18877 -63.0343 -0.273677 99.7757 1.22043 17.5158 -17.8378 5.05786 6.33677 -0.545225 -5.06253 -15.17 12.5307 -62.9657 3.45898 80.2597 1.89286 18.1525 0.0153129 -5.1058 -7.22728 0.984033 2.47049 16.0842 -15.1805 
-201.844 103.228 208.808 69.9623 43.5103 16.0755 -70.1915 0 88.8779 69.3612 71.0115 19.6483 6.16565 21.0869 2.72741 -140.282 17.998 167.37 -148.799 55.1252 161.912 2.57911 0.0478492 -26.6037 -104.631 61.6517 -93.3586 -13.722 58.465 14.3087 5.89599 -0.234775 -2.76717 0.401038 -1.57191 28.1441 -89.8963 -55.8072 83.7282 3.59885 -17.2963 16.2258 11.0943 -0.382984 -4.54425 -62.8579 -0.299684 99.7386 1.20721 17.5713 -17.8814 5.00888 6.49836 -0.532114 -5.11954 -15.3865 12.7952 -62.7262 3.35462 80.1889 1.99504 18.2439 -0.041291 -5.22786 -7.17455 0.989864 2.31663 15.8449 -14.7668 
-201.799 103.265 208.57 70.4391 43.4599 15.6254 -70.1915 0 88.8779 69.6796 71.0231 19.56 6.4523 21.1786 2.38372 -139.875 18.0346 167.39 -148.339 55.1691 162.393 2.58317 0.0840853 -26.5894 -104.729 61.7539 -93.2277 -13.8602 58.793 14.4402 5.60037 -0.261123 -3.49891 0.390248 -1.51042 27.958 -89.9957 -55.9662 83.3806 3.75313 -17.6189 16.3054 10.8724 -0.359233 -4.37073 -63.6696 -0.540601 99.7265 1.19176 16.871 -17.5506 5.14232 6.93062 -0.543892 -5.17325 -15.9117 12.5782 -63.0201 3.01898 79.8694 2.06441 18.7116 0.399203 -5.0635 -7.49123 0.988826 1.96231 16.4842 -14.2966 
-201.792 103.238 208.584 70.5387 43.3969 15.5565 -70.1915 0 88.8779 69.9438 71.0435 19.2767 6.36484 21.1462 2.50531 -139.837 17.9864 167.637 -148.807 55.2085 162.792 2.60566 0.127259 -26.764 -104.355 61.7046 -93.4568 -13.6104 57.8735 14.0642 5.35165 -0.22664 -3.03398 0.374981 -1.40829 27.9371 -90.6029 -55.9736 82.6724 3.91504 -17.8299 16.3741 10.9605 -0.38969 -4.67274 -63.6785 -0.630385 99.5537 1.36864 16.9637 -17.4449 5.1223 6.82578 -0.543152 -5.18428 -15.9249 12.6759 -63.0531 3.0172 79.8105 2.11521 18.7525 0.614836 -5.10693 -7.42087 0.989373 2.07728 15.9494 -14.3149 
-201.764 103.239 208.58 70.6814 43.2702 15.4223 -70.1915 0 88.8779 69.9027 71.0646 19.4058 6.57361 21.226 2.23867 -139.962 17.9209 167.313 -148.422 55.0573 162.328 2.56949 0.081636 -26.4442 -104.644 62.0619 -93.2206 -13.718 58.3948 14.2809 5.03221 -0.201224 -2.7756 0.393785 -1.52259 28.1585 -90.4944 -55.9423 82.9227 3.3408 -16.8084 16.0536 11.0275 -0.422249 -5.002 -63.7608 -0.568884 99.6591 1.31925 17.0068 -17.4244 5.04136 6.80972 -0.529132 -5.1587 -15.7242 12.707 -63.1408 3.02339 79.8125 2.10137 18.7533 0.789038 -5.09866 -7.22677 0.983597 2.2041 15.8059 -14.5182 
-201.738 103.216 208.594 70.687 43.1908 15.4335 -70.1915 0 88.8779 69.6513 70.9556 19.7545 6.81607 21.1746 2.05254 -139.935 17.9052 167.389 -148.139 54.9846 162.37 2.56531 0.142646 -26.3018 -104.561 62.1781 -93.2872 -13.7151 58.3626 14.2687 5.18476 -0.196682 -2.55693 0.388247 -1.475 28.3512 -91.6107 -55.656 82.1402 3.73605 -18.4012 15.945 10.9257 -0.407287 -4.88232 -63.7038 -0.455892 99.7651 1.28167 17.0987 -17.4571 5.05725 6.88634 -0.529841 -5.21811 -16.1946 12.6257 -63.0746 3.09338 79.8713 2.0769 18.8272 0.635481 -5.12909 -7.50119 0.992819 1.89538 16.3698 -14.113 
-201.688 103.225 208.632 70.5858 43.0016 15.592 -70.1915 0 88.8779 69.4824 70.9271 20.0346 6.80451 21.1489 2.13483 -140.098 17.8806 167.702 -148.524 55.0044 162.7 2.61165 0.337935 -26.4921 -103.191 62.1558 -94.5525 -13.8278 57.6408 13.9779 7.35277 -0.272358 -2.47367 0.389987 -1.48497 28.3788 -91.3542 -55.6755 82.2199 3.86387 -18.206 16.1562 10.8408 -0.400301 -4.84202 -63.553 -0.275571 99.8135 1.30108 17.2107 -17.4581 5.19892 6.54278 -0.564371 -5.1572 -15.6477 12.8043 -63.0028 3.33298 80.0191 2.05968 18.6749 0.717068 -5.18263 -7.18721 0.987507 2.19184 15.5883 -14.4038 
-201.653 103.24 208.603 70.7835 43.0115 15.3311 -70.1915 0 88.8779 69.5593 70.8254 19.9131 7.07337 21.0838 1.862 -140.338 17.7673 167.768 -148.708 54.8889 162.725 2.62075 0.461809 -26.3959 -104.191 62.191 -93.8571 -13.6741 58.1268 14.1758 5.93308 -0.247475 -2.97232 0.379242 -1.40845 28.4916 -91.7124 -55.6997 82.169 3.64379 -18.2943 15.8677 10.9475 -0.375797 -4.52457 -63.8288 -0.42308 99.7994 1.30658 16.9731 -17.3062 4.98097 6.87625 -0.516454 -5.21179 -16.2204 12.5154 -63.2104 3.17006 79.9319 2.06569 18.6499 0.798155 -5.18885 -7.27842 0.990296 1.96422 16.0356 -14.1174 
-201.597 103.219 208.653 70.6555 42.7839 15.4302 -70.1915 0 88.8779 69.108 70.8513 20.4311 7.09886 21.161 1.83354 -140.681 17.6409 167.761 -149.106 54.7907 162.656 2.60342 0.379062 -26.3407 -102.771 62.2717 -95.0313 -13.8477 57.4396 13.9128 8.46598 -0.304281 -2.35589 0.392826 -1.49438 28.5466 -91.0722 -55.8414 82.6394 3.45577 -17.2142 16.0096 11.2284 -0.36269 -4.27264 -63.6486 -0.292439 99.8548 1.30551 17.1156 -17.2424 5.01644 6.66873 -0.528648 -5.15954 -15.697 12.7562 -63.013 3.37015 80.1278 1.95571 18.6627 0.556543 -5.29784 -7.2887 0.996948 1.64539 15.7622 -13.3464 
-201.56 103.246 208.658 70.6561 42.6245 15.3252 -70.1915 0 88.8779 68.5785 70.8575 20.8846 7.24403 21.1936 1.92587 -140.601 17.8343 167.994 -148.998 54.9709 162.811 2.5966 0.284638 -26.4152 -102.213 62.2388 -95.4345 -14.6156 58.9083 14.4821 9.92157 -0.327496 -2.03327 0.379667 -1.42181 28.2837 -91.1268 -56.0514 82.6434 3.45371 -17.1926 16.0089 11.2241 -0.357062 -4.21364 -63.5848 -0.312278 99.8622 1.28494 17.2232 -16.9054 4.92981 6.8863 -0.506995 -5.17761 -16.1481 12.2558 -62.9927 3.36564 80.1748 1.89486 18.6391 0.866115 -5.02473 -7.42005 0.984634 1.89634 16.1518 -14.0255 
-201.499 103.248 208.662 70.6961 42.5571 15.279 -70.1915 0 88.8779 68.2501 70.8973 21.1762 7.34347 21.2435 1.99947 -140.732 17.906 167.91 -149.054 55.0445 162.645 2.57484 0.177187 -26.3504 -103.82 62.2582 -94.1201 -13.0909 56.2363 13.4879 6.11162 -0.255401 -2.98269 0.389357 -1.49143 28.1869 -91.3553 -56.1269 82.473 3.61032 -17.4424 16.0881 10.8479 -0.319442 -3.93598 -63.6847 -0.215099 100.016 1.18898 17.0951 -17.083 4.81663 6.98074 -0.483888 -5.21056 -16.2147 12.5109 -63.0357 3.40672 80.1843 1.89763 18.6248 0.964992 -5.13905 -7.56871 0.995205 1.9113 16.4568 -14.1811 
-201.449 103.247 208.682 70.5296 42.4598 15.4991 -70.1915 0 88.8779 68.3391 70.8554 21.1683 7.12704 21.1354 2.24181 -140.799 18.0418 168.365 -149.307 55.1929 162.911 2.65215 0.402213 -26.8201 -103.715 61.9396 -94.2238 -13.6285 57.5785 13.9664 7.01755 -0.286587 -2.88678 0.367585 -1.35483 28.0073 -91.6877 -56.1415 82.0606 4.01913 -18.1867 16.2923 10.8893 -0.3943 -4.75405 -63.4927 -0.0451934 100.064 1.20994 17.2312 -17.002 4.94485 6.67389 -0.5158 -5.12815 -15.7443 12.3563 -63.0252 3.61823 80.3331 1.90281 18.3373 0.820302 -5.27823 -7.08813 0.990639 2.03629 15.5964 -14.0847 
-201.441 103.244 208.633 70.7843 42.5768 15.1064 -70.1915 0 88.8779 68.9388 70.9311 20.2949 6.989 21.158 2.2407 -140.616 17.9496 168.086 -148.816 55.0211 162.581 2.59184 0.259994 -26.4029 -104.403 62.2255 -93.412 -13.2753 57.086 13.7868 6.14897 -0.266682 -3.15451 0.373382 -1.38734 28.1379 -91.6043 -56.1319 82.1701 3.91375 -17.9945 16.2357 11.0113 -0.418412 -4.96714 -63.9768 -0.432097 99.8511 1.24108 16.7495 -16.9006 4.86081 6.79455 -0.49733 -5.16788 -15.8223 12.6568 -62.9928 3.25354 80.0844 1.88272 18.9152 1.08127 -5.1933 -7.403 0.993856 2.01162 15.9122 -14.1642 
